<?xml version="1.0" encoding="UTF-8"?>
<svg xmlns="http://www.w3.org/2000/svg"
     width="300" height="240" viewBox="0 0 300 240">
  <rect width="300" height="240" fill="#FFF5F7" rx="20"/>
  <circle cx="150" cy="95" r="38.4"
           fill="#FFE8E8" stroke="#FFAAAA" stroke-width="2"/><line x1="139"
               y1="77"
               x2="128.9" y2="60.6"
               stroke="#FF6B6B" stroke-width="13.2"
               stroke-linecap="round"/><circle cx="128.9" cy="60.6" r="8.4"
             fill="#FFFFFF" stroke="#FF6B6B" stroke-width="2"/><line x1="142.4"
               y1="75.3"
               x2="135.5" y2="57.4"
               stroke="#FF6B6B" stroke-width="13.2"
               stroke-linecap="round"/><circle cx="135.5" cy="57.4" r="8.4"
             fill="#FFFFFF" stroke="#FF6B6B" stroke-width="2"/><line x1="146.1"
               y1="74.3"
               x2="142.6" y2="55.4"
               stroke="#FF6B6B" stroke-width="13.2"
               stroke-linecap="round"/><circle cx="142.6" cy="55.4" r="8.4"
             fill="#FFFFFF" stroke="#FF6B6B" stroke-width="2"/><line x1="150"
               y1="73.9"
               x2="150" y2="54.7"
               stroke="#FF6B6B" stroke-width="13.2"
               stroke-linecap="round"/><circle cx="150" cy="54.7" r="8.4"
             fill="#FFFFFF" stroke="#FF6B6B" stroke-width="2"/><line x1="153.9"
               y1="74.3"
               x2="157.4" y2="55.4"
               stroke="#FF6B6B" stroke-width="13.2"
               stroke-linecap="round"/><circle cx="157.4" cy="55.4" r="8.4"
             fill="#FFFFFF" stroke="#FF6B6B" stroke-width="2"/><line x1="157.6"
               y1="75.3"
               x2="164.5" y2="57.4"
               stroke="#FF6B6B" stroke-width="13.2"
               stroke-linecap="round"/><circle cx="164.5" cy="57.4" r="8.4"
             fill="#FFFFFF" stroke="#FF6B6B" stroke-width="2"/><line x1="161"
               y1="77"
               x2="171.1" y2="60.6"
               stroke="#FF6B6B" stroke-width="13.2"
               stroke-linecap="round"/><circle cx="171.1" cy="60.6" r="8.4"
             fill="#FFFFFF" stroke="#FF6B6B" stroke-width="2"/>
    <rect x="129" y="10" width="42" height="36" rx="12"
          fill="#FF6B6B"/>
    <text x="150" y="36" text-anchor="middle"
          font-family="Arial Rounded MT Bold, Arial, sans-serif"
          font-size="20" font-weight="900" fill="white">7</text>
</svg>