<?xml version="1.0" encoding="UTF-8"?>
<svg xmlns="http://www.w3.org/2000/svg"
     width="300" height="240" viewBox="0 0 300 240">
  <rect width="300" height="240" fill="#FFF5F7" rx="20"/>
  <circle cx="64.5" cy="58.4" r="6.4" fill="#FF6B6B"/><line x1="64.5" y1="65.4" x2="64.5" y2="82.4"
           stroke="#FF6B6B" stroke-width="3.4" stroke-linecap="round"/><line x1="64.5" y1="66.7" x2="45.9" y2="56.9"
           stroke="#FF6B6B" stroke-width="3.4" stroke-linecap="round"/><line x1="64.5" y1="66.7" x2="83.1" y2="56.9"
           stroke="#FF6B6B" stroke-width="3.4" stroke-linecap="round"/><circle cx="42.8" cy="50.8" r="2.7" fill="#FF6B6B"/><circle cx="43.9" cy="50.3" r="2.7" fill="#FF6B6B"/><circle cx="45.1" cy="50.1" r="2.7" fill="#FF6B6B"/><circle cx="46.4" cy="50.1" r="2.7" fill="#FF6B6B"/><circle cx="47.6" cy="50.3" r="2.7" fill="#FF6B6B"/><circle cx="89.2" cy="53.8" r="2.7" fill="#FF6B6B"/><circle cx="88.6" cy="52.7" r="2.7" fill="#FF6B6B"/><circle cx="87.7" cy="51.8" r="2.7" fill="#FF6B6B"/><circle cx="86.8" cy="51.1" r="2.7" fill="#FF6B6B"/><circle cx="85.7" cy="50.5" r="2.7" fill="#FF6B6B"/><line x1="64.5" y1="82.4" x2="56.2" y2="99"
           stroke="#FF6B6B" stroke-width="3.4" stroke-linecap="round"/><line x1="64.5" y1="82.4" x2="72.8" y2="99"
           stroke="#FF6B6B" stroke-width="3.4" stroke-linecap="round"/><circle cx="109.7" cy="58.4" r="6.4" fill="#FF6B6B"/><line x1="109.7" y1="65.4" x2="109.7" y2="82.4"
           stroke="#FF6B6B" stroke-width="3.4" stroke-linecap="round"/><line x1="109.7" y1="66.7" x2="91.1" y2="56.9"
           stroke="#FF6B6B" stroke-width="3.4" stroke-linecap="round"/><line x1="109.7" y1="66.7" x2="128.3" y2="56.9"
           stroke="#FF6B6B" stroke-width="3.4" stroke-linecap="round"/><circle cx="88" cy="50.8" r="2.7" fill="#FF6B6B"/><circle cx="89.1" cy="50.3" r="2.7" fill="#FF6B6B"/><circle cx="90.3" cy="50.1" r="2.7" fill="#FF6B6B"/><circle cx="91.6" cy="50.1" r="2.7" fill="#FF6B6B"/><circle cx="92.8" cy="50.3" r="2.7" fill="#FF6B6B"/><circle cx="134.4" cy="53.8" r="2.7" fill="#FF6B6B"/><circle cx="133.8" cy="52.7" r="2.7" fill="#FF6B6B"/><circle cx="132.9" cy="51.8" r="2.7" fill="#FF6B6B"/><circle cx="132" cy="51.1" r="2.7" fill="#FF6B6B"/><circle cx="130.9" cy="50.5" r="2.7" fill="#FF6B6B"/><line x1="109.7" y1="82.4" x2="101.4" y2="99"
           stroke="#FF6B6B" stroke-width="3.4" stroke-linecap="round"/><line x1="109.7" y1="82.4" x2="118" y2="99"
           stroke="#FF6B6B" stroke-width="3.4" stroke-linecap="round"/><circle cx="154.9" cy="58.4" r="6.4" fill="#FF6B6B"/><line x1="154.9" y1="65.4" x2="154.9" y2="82.4"
           stroke="#FF6B6B" stroke-width="3.4" stroke-linecap="round"/><line x1="154.9" y1="66.7" x2="136.3" y2="56.9"
           stroke="#FF6B6B" stroke-width="3.4" stroke-linecap="round"/><line x1="154.9" y1="66.7" x2="173.5" y2="56.9"
           stroke="#FF6B6B" stroke-width="3.4" stroke-linecap="round"/><circle cx="133.2" cy="50.8" r="2.7" fill="#FF6B6B"/><circle cx="134.3" cy="50.3" r="2.7" fill="#FF6B6B"/><circle cx="135.5" cy="50.1" r="2.7" fill="#FF6B6B"/><circle cx="136.8" cy="50.1" r="2.7" fill="#FF6B6B"/><circle cx="138" cy="50.3" r="2.7" fill="#FF6B6B"/><circle cx="179.6" cy="53.8" r="2.7" fill="#FF6B6B"/><circle cx="179" cy="52.7" r="2.7" fill="#FF6B6B"/><circle cx="178.1" cy="51.8" r="2.7" fill="#FF6B6B"/><circle cx="177.2" cy="51.1" r="2.7" fill="#FF6B6B"/><circle cx="176.1" cy="50.5" r="2.7" fill="#FF6B6B"/><line x1="154.9" y1="82.4" x2="146.6" y2="99"
           stroke="#FF6B6B" stroke-width="3.4" stroke-linecap="round"/><line x1="154.9" y1="82.4" x2="163.2" y2="99"
           stroke="#FF6B6B" stroke-width="3.4" stroke-linecap="round"/><circle cx="200.1" cy="58.4" r="6.4" fill="#FF6B6B"/><line x1="200.1" y1="65.4" x2="200.1" y2="82.4"
           stroke="#FF6B6B" stroke-width="3.4" stroke-linecap="round"/><line x1="200.1" y1="66.7" x2="181.5" y2="56.9"
           stroke="#FF6B6B" stroke-width="3.4" stroke-linecap="round"/><line x1="200.1" y1="66.7" x2="218.7" y2="56.9"
           stroke="#FF6B6B" stroke-width="3.4" stroke-linecap="round"/><circle cx="178.4" cy="50.8" r="2.7" fill="#FF6B6B"/><circle cx="179.5" cy="50.3" r="2.7" fill="#FF6B6B"/><circle cx="180.7" cy="50.1" r="2.7" fill="#FF6B6B"/><circle cx="182" cy="50.1" r="2.7" fill="#FF6B6B"/><circle cx="183.2" cy="50.3" r="2.7" fill="#FF6B6B"/><circle cx="224.8" cy="53.8" r="2.7" fill="#FF6B6B"/><circle cx="224.2" cy="52.7" r="2.7" fill="#FF6B6B"/><circle cx="223.3" cy="51.8" r="2.7" fill="#FF6B6B"/><circle cx="222.4" cy="51.1" r="2.7" fill="#FF6B6B"/><circle cx="221.3" cy="50.5" r="2.7" fill="#FF6B6B"/><line x1="200.1" y1="82.4" x2="191.8" y2="99"
           stroke="#FF6B6B" stroke-width="3.4" stroke-linecap="round"/><line x1="200.1" y1="82.4" x2="208.4" y2="99"
           stroke="#FF6B6B" stroke-width="3.4" stroke-linecap="round"/><circle cx="245.3" cy="58.4" r="6.4" fill="#FF6B6B"/><line x1="245.3" y1="65.4" x2="245.3" y2="82.4"
           stroke="#FF6B6B" stroke-width="3.4" stroke-linecap="round"/><line x1="245.3" y1="66.7" x2="226.7" y2="56.9"
           stroke="#FF6B6B" stroke-width="3.4" stroke-linecap="round"/><line x1="245.3" y1="66.7" x2="263.9" y2="56.9"
           stroke="#FF6B6B" stroke-width="3.4" stroke-linecap="round"/><circle cx="223.6" cy="50.8" r="2.7" fill="#FF6B6B"/><circle cx="224.7" cy="50.3" r="2.7" fill="#FF6B6B"/><circle cx="225.9" cy="50.1" r="2.7" fill="#FF6B6B"/><circle cx="227.2" cy="50.1" r="2.7" fill="#FF6B6B"/><circle cx="228.4" cy="50.3" r="2.7" fill="#FF6B6B"/><circle cx="270" cy="53.8" r="2.7" fill="#FF6B6B"/><circle cx="269.4" cy="52.7" r="2.7" fill="#FF6B6B"/><circle cx="268.5" cy="51.8" r="2.7" fill="#FF6B6B"/><circle cx="267.6" cy="51.1" r="2.7" fill="#FF6B6B"/><circle cx="266.5" cy="50.5" r="2.7" fill="#FF6B6B"/><line x1="245.3" y1="82.4" x2="237" y2="99"
           stroke="#FF6B6B" stroke-width="3.4" stroke-linecap="round"/><line x1="245.3" y1="82.4" x2="253.6" y2="99"
           stroke="#FF6B6B" stroke-width="3.4" stroke-linecap="round"/><text x="150" y="125" text-anchor="middle"
       font-family="Arial, sans-serif" font-size="22" font-weight="900"
       fill="#FFAAAA">+</text><circle cx="150" cy="182" r="38.4"
           fill="#FFE8E8" stroke="#FFAAAA" stroke-width="2"/><line x1="139"
               y1="164"
               x2="128.9" y2="147.6"
               stroke="#FF6B6B" stroke-width="13.2"
               stroke-linecap="round"/><circle cx="128.9" cy="147.6" r="8.4"
             fill="#FFFFFF" stroke="#FF6B6B" stroke-width="2"/><line x1="142.4"
               y1="162.3"
               x2="135.5" y2="144.4"
               stroke="#FF6B6B" stroke-width="13.2"
               stroke-linecap="round"/><circle cx="135.5" cy="144.4" r="8.4"
             fill="#FFFFFF" stroke="#FF6B6B" stroke-width="2"/><line x1="146.1"
               y1="161.3"
               x2="142.6" y2="142.4"
               stroke="#FF6B6B" stroke-width="13.2"
               stroke-linecap="round"/><circle cx="142.6" cy="142.4" r="8.4"
             fill="#FFFFFF" stroke="#FF6B6B" stroke-width="2"/><line x1="150"
               y1="160.9"
               x2="150" y2="141.7"
               stroke="#FF6B6B" stroke-width="13.2"
               stroke-linecap="round"/><circle cx="150" cy="141.7" r="8.4"
             fill="#FFFFFF" stroke="#FF6B6B" stroke-width="2"/><line x1="153.9"
               y1="161.3"
               x2="157.4" y2="142.4"
               stroke="#FF6B6B" stroke-width="13.2"
               stroke-linecap="round"/><circle cx="157.4" cy="142.4" r="8.4"
             fill="#FFFFFF" stroke="#FF6B6B" stroke-width="2"/><line x1="157.6"
               y1="162.3"
               x2="164.5" y2="144.4"
               stroke="#FF6B6B" stroke-width="13.2"
               stroke-linecap="round"/><circle cx="164.5" cy="144.4" r="8.4"
             fill="#FFFFFF" stroke="#FF6B6B" stroke-width="2"/><line x1="161"
               y1="164"
               x2="171.1" y2="147.6"
               stroke="#FF6B6B" stroke-width="13.2"
               stroke-linecap="round"/><circle cx="171.1" cy="147.6" r="8.4"
             fill="#FFFFFF" stroke="#FF6B6B" stroke-width="2"/>
    <rect x="125" y="10" width="50" height="36" rx="12"
          fill="#FF6B6B"/>
    <text x="150" y="36" text-anchor="middle"
          font-family="Arial Rounded MT Bold, Arial, sans-serif"
          font-size="20" font-weight="900" fill="white">57</text>
</svg>