<?xml version="1.0" encoding="UTF-8"?>
<svg xmlns="http://www.w3.org/2000/svg"
     width="300" height="240" viewBox="0 0 300 240">
  <rect width="300" height="240" fill="#FFF5F7" rx="20"/>
  <circle cx="71.7" cy="60.2" r="8.2" fill="#FF6B6B"/><line x1="71.7" y1="69.2" x2="71.7" y2="91.1"
           stroke="#FF6B6B" stroke-width="4.4" stroke-linecap="round"/><line x1="71.7" y1="70.9" x2="47.8" y2="58.3"
           stroke="#FF6B6B" stroke-width="4.4" stroke-linecap="round"/><line x1="71.7" y1="70.9" x2="95.6" y2="58.3"
           stroke="#FF6B6B" stroke-width="4.4" stroke-linecap="round"/><circle cx="43.8" cy="50.4" r="3.5" fill="#FF6B6B"/><circle cx="45.2" cy="49.9" r="3.5" fill="#FF6B6B"/><circle cx="46.8" cy="49.5" r="3.5" fill="#FF6B6B"/><circle cx="48.4" cy="49.5" r="3.5" fill="#FF6B6B"/><circle cx="49.9" cy="49.8" r="3.5" fill="#FF6B6B"/><circle cx="103.5" cy="54.3" r="3.5" fill="#FF6B6B"/><circle cx="102.7" cy="53" r="3.5" fill="#FF6B6B"/><circle cx="101.6" cy="51.8" r="3.5" fill="#FF6B6B"/><circle cx="100.3" cy="50.8" r="3.5" fill="#FF6B6B"/><circle cx="98.9" cy="50.1" r="3.5" fill="#FF6B6B"/><line x1="71.7" y1="91.1" x2="61" y2="112.5"
           stroke="#FF6B6B" stroke-width="4.4" stroke-linecap="round"/><line x1="71.7" y1="91.1" x2="82.4" y2="112.5"
           stroke="#FF6B6B" stroke-width="4.4" stroke-linecap="round"/><circle cx="128.1" cy="60.2" r="8.2" fill="#FF6B6B"/><line x1="128.1" y1="69.2" x2="128.1" y2="91.1"
           stroke="#FF6B6B" stroke-width="4.4" stroke-linecap="round"/><line x1="128.1" y1="70.9" x2="104.2" y2="58.3"
           stroke="#FF6B6B" stroke-width="4.4" stroke-linecap="round"/><line x1="128.1" y1="70.9" x2="152" y2="58.3"
           stroke="#FF6B6B" stroke-width="4.4" stroke-linecap="round"/><circle cx="100.2" cy="50.4" r="3.5" fill="#FF6B6B"/><circle cx="101.6" cy="49.9" r="3.5" fill="#FF6B6B"/><circle cx="103.2" cy="49.5" r="3.5" fill="#FF6B6B"/><circle cx="104.8" cy="49.5" r="3.5" fill="#FF6B6B"/><circle cx="106.3" cy="49.8" r="3.5" fill="#FF6B6B"/><circle cx="159.9" cy="54.3" r="3.5" fill="#FF6B6B"/><circle cx="159.1" cy="53" r="3.5" fill="#FF6B6B"/><circle cx="158" cy="51.8" r="3.5" fill="#FF6B6B"/><circle cx="156.7" cy="50.8" r="3.5" fill="#FF6B6B"/><circle cx="155.3" cy="50.1" r="3.5" fill="#FF6B6B"/><line x1="128.1" y1="91.1" x2="117.4" y2="112.5"
           stroke="#FF6B6B" stroke-width="4.4" stroke-linecap="round"/><line x1="128.1" y1="91.1" x2="138.8" y2="112.5"
           stroke="#FF6B6B" stroke-width="4.4" stroke-linecap="round"/><circle cx="184.5" cy="60.2" r="8.2" fill="#FF6B6B"/><line x1="184.5" y1="69.2" x2="184.5" y2="91.1"
           stroke="#FF6B6B" stroke-width="4.4" stroke-linecap="round"/><line x1="184.5" y1="70.9" x2="160.6" y2="58.3"
           stroke="#FF6B6B" stroke-width="4.4" stroke-linecap="round"/><line x1="184.5" y1="70.9" x2="208.4" y2="58.3"
           stroke="#FF6B6B" stroke-width="4.4" stroke-linecap="round"/><circle cx="156.6" cy="50.4" r="3.5" fill="#FF6B6B"/><circle cx="158" cy="49.9" r="3.5" fill="#FF6B6B"/><circle cx="159.6" cy="49.5" r="3.5" fill="#FF6B6B"/><circle cx="161.2" cy="49.5" r="3.5" fill="#FF6B6B"/><circle cx="162.7" cy="49.8" r="3.5" fill="#FF6B6B"/><circle cx="216.3" cy="54.3" r="3.5" fill="#FF6B6B"/><circle cx="215.5" cy="53" r="3.5" fill="#FF6B6B"/><circle cx="214.4" cy="51.8" r="3.5" fill="#FF6B6B"/><circle cx="213.1" cy="50.8" r="3.5" fill="#FF6B6B"/><circle cx="211.7" cy="50.1" r="3.5" fill="#FF6B6B"/><line x1="184.5" y1="91.1" x2="173.8" y2="112.5"
           stroke="#FF6B6B" stroke-width="4.4" stroke-linecap="round"/><line x1="184.5" y1="91.1" x2="195.2" y2="112.5"
           stroke="#FF6B6B" stroke-width="4.4" stroke-linecap="round"/><circle cx="240.9" cy="60.2" r="8.2" fill="#FF6B6B"/><line x1="240.9" y1="69.2" x2="240.9" y2="91.1"
           stroke="#FF6B6B" stroke-width="4.4" stroke-linecap="round"/><line x1="240.9" y1="70.9" x2="217" y2="58.3"
           stroke="#FF6B6B" stroke-width="4.4" stroke-linecap="round"/><line x1="240.9" y1="70.9" x2="264.8" y2="58.3"
           stroke="#FF6B6B" stroke-width="4.4" stroke-linecap="round"/><circle cx="213" cy="50.4" r="3.5" fill="#FF6B6B"/><circle cx="214.4" cy="49.9" r="3.5" fill="#FF6B6B"/><circle cx="216" cy="49.5" r="3.5" fill="#FF6B6B"/><circle cx="217.6" cy="49.5" r="3.5" fill="#FF6B6B"/><circle cx="219.1" cy="49.8" r="3.5" fill="#FF6B6B"/><circle cx="272.7" cy="54.3" r="3.5" fill="#FF6B6B"/><circle cx="271.9" cy="53" r="3.5" fill="#FF6B6B"/><circle cx="270.8" cy="51.8" r="3.5" fill="#FF6B6B"/><circle cx="269.5" cy="50.8" r="3.5" fill="#FF6B6B"/><circle cx="268.1" cy="50.1" r="3.5" fill="#FF6B6B"/><line x1="240.9" y1="91.1" x2="230.2" y2="112.5"
           stroke="#FF6B6B" stroke-width="4.4" stroke-linecap="round"/><line x1="240.9" y1="91.1" x2="251.6" y2="112.5"
           stroke="#FF6B6B" stroke-width="4.4" stroke-linecap="round"/><text x="150" y="139" text-anchor="middle"
       font-family="Arial, sans-serif" font-size="22" font-weight="900"
       fill="#FFAAAA">+</text><circle cx="150" cy="196" r="38.4"
           fill="#FFE8E8" stroke="#FFAAAA" stroke-width="2"/><line x1="139"
               y1="178"
               x2="128.9" y2="161.6"
               stroke="#FF6B6B" stroke-width="13.2"
               stroke-linecap="round"/><circle cx="128.9" cy="161.6" r="8.4"
             fill="#FFFFFF" stroke="#FF6B6B" stroke-width="2"/><line x1="141.5"
               y1="176.7"
               x2="133.8" y2="159.1"
               stroke="#FF6B6B" stroke-width="13.2"
               stroke-linecap="round"/><circle cx="133.8" cy="159.1" r="8.4"
             fill="#FFFFFF" stroke="#FF6B6B" stroke-width="2"/><line x1="144.3"
               y1="175.7"
               x2="139.1" y2="157.2"
               stroke="#FF6B6B" stroke-width="13.2"
               stroke-linecap="round"/><circle cx="139.1" cy="157.2" r="8.4"
             fill="#FFFFFF" stroke="#FF6B6B" stroke-width="2"/><line x1="147.1"
               y1="175.1"
               x2="144.5" y2="156.1"
               stroke="#FF6B6B" stroke-width="13.2"
               stroke-linecap="round"/><circle cx="144.5" cy="156.1" r="8.4"
             fill="#FFFFFF" stroke="#FF6B6B" stroke-width="2"/><line x1="150"
               y1="174.9"
               x2="150" y2="155.7"
               stroke="#FF6B6B" stroke-width="13.2"
               stroke-linecap="round"/><circle cx="150" cy="155.7" r="8.4"
             fill="#FFFFFF" stroke="#FF6B6B" stroke-width="2"/><line x1="152.9"
               y1="175.1"
               x2="155.5" y2="156.1"
               stroke="#FF6B6B" stroke-width="13.2"
               stroke-linecap="round"/><circle cx="155.5" cy="156.1" r="8.4"
             fill="#FFFFFF" stroke="#FF6B6B" stroke-width="2"/><line x1="155.7"
               y1="175.7"
               x2="160.9" y2="157.2"
               stroke="#FF6B6B" stroke-width="13.2"
               stroke-linecap="round"/><circle cx="160.9" cy="157.2" r="8.4"
             fill="#FFFFFF" stroke="#FF6B6B" stroke-width="2"/><line x1="158.5"
               y1="176.7"
               x2="166.2" y2="159.1"
               stroke="#FF6B6B" stroke-width="13.2"
               stroke-linecap="round"/><circle cx="166.2" cy="159.1" r="8.4"
             fill="#FFFFFF" stroke="#FF6B6B" stroke-width="2"/><line x1="161"
               y1="178"
               x2="171.1" y2="161.6"
               stroke="#FF6B6B" stroke-width="13.2"
               stroke-linecap="round"/><circle cx="171.1" cy="161.6" r="8.4"
             fill="#FFFFFF" stroke="#FF6B6B" stroke-width="2"/>
    <rect x="125" y="10" width="50" height="36" rx="12"
          fill="#FF6B6B"/>
    <text x="150" y="36" text-anchor="middle"
          font-family="Arial Rounded MT Bold, Arial, sans-serif"
          font-size="20" font-weight="900" fill="white">49</text>
</svg>