<?xml version="1.0" encoding="UTF-8"?>
<svg xmlns="http://www.w3.org/2000/svg"
     width="300" height="244" viewBox="0 0 300 244">
  <rect width="300" height="244" fill="#FFF5F7" rx="20"/>
  <circle cx="157.2" cy="61.4" r="9.4" fill="#FF6B6B"/><line x1="157.2" y1="71.7" x2="157.2" y2="96.6"
           stroke="#FF6B6B" stroke-width="5" stroke-linecap="round"/><line x1="157.2" y1="73.6" x2="129.8" y2="59.2"
           stroke="#FF6B6B" stroke-width="5" stroke-linecap="round"/><line x1="157.2" y1="73.6" x2="184.6" y2="59.2"
           stroke="#FF6B6B" stroke-width="5" stroke-linecap="round"/><circle cx="125.3" cy="50.2" r="4" fill="#FF6B6B"/><circle cx="126.9" cy="49.5" r="4" fill="#FF6B6B"/><circle cx="128.7" cy="49.2" r="4" fill="#FF6B6B"/><circle cx="130.5" cy="49.1" r="4" fill="#FF6B6B"/><circle cx="132.3" cy="49.4" r="4" fill="#FF6B6B"/><circle cx="193.5" cy="54.6" r="4" fill="#FF6B6B"/><circle cx="192.6" cy="53.1" r="4" fill="#FF6B6B"/><circle cx="191.4" cy="51.8" r="4" fill="#FF6B6B"/><circle cx="189.9" cy="50.7" r="4" fill="#FF6B6B"/><circle cx="188.3" cy="49.8" r="4" fill="#FF6B6B"/><line x1="157.2" y1="96.6" x2="145" y2="121.1"
           stroke="#FF6B6B" stroke-width="5" stroke-linecap="round"/><line x1="157.2" y1="96.6" x2="169.4" y2="121.1"
           stroke="#FF6B6B" stroke-width="5" stroke-linecap="round"/><text x="150" y="148" text-anchor="middle"
       font-family="Arial, sans-serif" font-size="22" font-weight="900"
       fill="#FFAAAA">+</text><circle cx="150" cy="205" r="38.4"
           fill="#FFE8E8" stroke="#FFAAAA" stroke-width="2"/><line x1="139"
               y1="187"
               x2="128.9" y2="170.6"
               stroke="#FF6B6B" stroke-width="13.2"
               stroke-linecap="round"/><circle cx="128.9" cy="170.6" r="8.4"
             fill="#FFFFFF" stroke="#FF6B6B" stroke-width="2"/><line x1="142.4"
               y1="185.3"
               x2="135.5" y2="167.4"
               stroke="#FF6B6B" stroke-width="13.2"
               stroke-linecap="round"/><circle cx="135.5" cy="167.4" r="8.4"
             fill="#FFFFFF" stroke="#FF6B6B" stroke-width="2"/><line x1="146.1"
               y1="184.3"
               x2="142.6" y2="165.4"
               stroke="#FF6B6B" stroke-width="13.2"
               stroke-linecap="round"/><circle cx="142.6" cy="165.4" r="8.4"
             fill="#FFFFFF" stroke="#FF6B6B" stroke-width="2"/><line x1="150"
               y1="183.9"
               x2="150" y2="164.7"
               stroke="#FF6B6B" stroke-width="13.2"
               stroke-linecap="round"/><circle cx="150" cy="164.7" r="8.4"
             fill="#FFFFFF" stroke="#FF6B6B" stroke-width="2"/><line x1="153.9"
               y1="184.3"
               x2="157.4" y2="165.4"
               stroke="#FF6B6B" stroke-width="13.2"
               stroke-linecap="round"/><circle cx="157.4" cy="165.4" r="8.4"
             fill="#FFFFFF" stroke="#FF6B6B" stroke-width="2"/><line x1="157.6"
               y1="185.3"
               x2="164.5" y2="167.4"
               stroke="#FF6B6B" stroke-width="13.2"
               stroke-linecap="round"/><circle cx="164.5" cy="167.4" r="8.4"
             fill="#FFFFFF" stroke="#FF6B6B" stroke-width="2"/><line x1="161"
               y1="187"
               x2="171.1" y2="170.6"
               stroke="#FF6B6B" stroke-width="13.2"
               stroke-linecap="round"/><circle cx="171.1" cy="170.6" r="8.4"
             fill="#FFFFFF" stroke="#FF6B6B" stroke-width="2"/>
    <rect x="125" y="10" width="50" height="36" rx="12"
          fill="#FF6B6B"/>
    <text x="150" y="36" text-anchor="middle"
          font-family="Arial Rounded MT Bold, Arial, sans-serif"
          font-size="20" font-weight="900" fill="white">17</text>
</svg>