<?xml version="1.0" encoding="UTF-8"?>
<svg xmlns="http://www.w3.org/2000/svg"
     width="300" height="244" viewBox="0 0 300 244">
  <rect width="300" height="244" fill="#FFF5F7" rx="20"/>
  <circle cx="93.6" cy="61.4" r="9.4" fill="#FF6B6B"/><line x1="93.6" y1="71.7" x2="93.6" y2="96.6"
           stroke="#FF6B6B" stroke-width="5" stroke-linecap="round"/><line x1="93.6" y1="73.6" x2="66.2" y2="59.2"
           stroke="#FF6B6B" stroke-width="5" stroke-linecap="round"/><line x1="93.6" y1="73.6" x2="121" y2="59.2"
           stroke="#FF6B6B" stroke-width="5" stroke-linecap="round"/><circle cx="61.7" cy="50.2" r="4" fill="#FF6B6B"/><circle cx="63.3" cy="49.5" r="4" fill="#FF6B6B"/><circle cx="65.1" cy="49.2" r="4" fill="#FF6B6B"/><circle cx="66.9" cy="49.1" r="4" fill="#FF6B6B"/><circle cx="68.7" cy="49.4" r="4" fill="#FF6B6B"/><circle cx="129.9" cy="54.6" r="4" fill="#FF6B6B"/><circle cx="129" cy="53.1" r="4" fill="#FF6B6B"/><circle cx="127.8" cy="51.8" r="4" fill="#FF6B6B"/><circle cx="126.3" cy="50.7" r="4" fill="#FF6B6B"/><circle cx="124.7" cy="49.8" r="4" fill="#FF6B6B"/><line x1="93.6" y1="96.6" x2="81.4" y2="121.1"
           stroke="#FF6B6B" stroke-width="5" stroke-linecap="round"/><line x1="93.6" y1="96.6" x2="105.8" y2="121.1"
           stroke="#FF6B6B" stroke-width="5" stroke-linecap="round"/><circle cx="157.2" cy="61.4" r="9.4" fill="#FF6B6B"/><line x1="157.2" y1="71.7" x2="157.2" y2="96.6"
           stroke="#FF6B6B" stroke-width="5" stroke-linecap="round"/><line x1="157.2" y1="73.6" x2="129.8" y2="59.2"
           stroke="#FF6B6B" stroke-width="5" stroke-linecap="round"/><line x1="157.2" y1="73.6" x2="184.6" y2="59.2"
           stroke="#FF6B6B" stroke-width="5" stroke-linecap="round"/><circle cx="125.3" cy="50.2" r="4" fill="#FF6B6B"/><circle cx="126.9" cy="49.5" r="4" fill="#FF6B6B"/><circle cx="128.7" cy="49.2" r="4" fill="#FF6B6B"/><circle cx="130.5" cy="49.1" r="4" fill="#FF6B6B"/><circle cx="132.3" cy="49.4" r="4" fill="#FF6B6B"/><circle cx="193.5" cy="54.6" r="4" fill="#FF6B6B"/><circle cx="192.6" cy="53.1" r="4" fill="#FF6B6B"/><circle cx="191.4" cy="51.8" r="4" fill="#FF6B6B"/><circle cx="189.9" cy="50.7" r="4" fill="#FF6B6B"/><circle cx="188.3" cy="49.8" r="4" fill="#FF6B6B"/><line x1="157.2" y1="96.6" x2="145" y2="121.1"
           stroke="#FF6B6B" stroke-width="5" stroke-linecap="round"/><line x1="157.2" y1="96.6" x2="169.4" y2="121.1"
           stroke="#FF6B6B" stroke-width="5" stroke-linecap="round"/><circle cx="220.8" cy="61.4" r="9.4" fill="#FF6B6B"/><line x1="220.8" y1="71.7" x2="220.8" y2="96.6"
           stroke="#FF6B6B" stroke-width="5" stroke-linecap="round"/><line x1="220.8" y1="73.6" x2="193.4" y2="59.2"
           stroke="#FF6B6B" stroke-width="5" stroke-linecap="round"/><line x1="220.8" y1="73.6" x2="248.2" y2="59.2"
           stroke="#FF6B6B" stroke-width="5" stroke-linecap="round"/><circle cx="188.9" cy="50.2" r="4" fill="#FF6B6B"/><circle cx="190.5" cy="49.5" r="4" fill="#FF6B6B"/><circle cx="192.3" cy="49.2" r="4" fill="#FF6B6B"/><circle cx="194.1" cy="49.1" r="4" fill="#FF6B6B"/><circle cx="195.9" cy="49.4" r="4" fill="#FF6B6B"/><circle cx="257.1" cy="54.6" r="4" fill="#FF6B6B"/><circle cx="256.2" cy="53.1" r="4" fill="#FF6B6B"/><circle cx="255" cy="51.8" r="4" fill="#FF6B6B"/><circle cx="253.5" cy="50.7" r="4" fill="#FF6B6B"/><circle cx="251.9" cy="49.8" r="4" fill="#FF6B6B"/><line x1="220.8" y1="96.6" x2="208.6" y2="121.1"
           stroke="#FF6B6B" stroke-width="5" stroke-linecap="round"/><line x1="220.8" y1="96.6" x2="233" y2="121.1"
           stroke="#FF6B6B" stroke-width="5" stroke-linecap="round"/><text x="150" y="148" text-anchor="middle"
       font-family="Arial, sans-serif" font-size="22" font-weight="900"
       fill="#FFAAAA">+</text><circle cx="150" cy="205" r="38.4"
           fill="#FFE8E8" stroke="#FFAAAA" stroke-width="2"/><line x1="139.7"
               y1="186.6"
               x2="130.3" y2="169.8"
               stroke="#FF6B6B" stroke-width="13.2"
               stroke-linecap="round"/><circle cx="130.3" cy="169.8" r="8.4"
             fill="#FFFFFF" stroke="#FF6B6B" stroke-width="2"/><line x1="146.4"
               y1="184.2"
               x2="143.2" y2="165.3"
               stroke="#FF6B6B" stroke-width="13.2"
               stroke-linecap="round"/><circle cx="143.2" cy="165.3" r="8.4"
             fill="#FFFFFF" stroke="#FF6B6B" stroke-width="2"/><line x1="153.6"
               y1="184.2"
               x2="156.8" y2="165.3"
               stroke="#FF6B6B" stroke-width="13.2"
               stroke-linecap="round"/><circle cx="156.8" cy="165.3" r="8.4"
             fill="#FFFFFF" stroke="#FF6B6B" stroke-width="2"/><line x1="160.3"
               y1="186.6"
               x2="169.7" y2="169.8"
               stroke="#FF6B6B" stroke-width="13.2"
               stroke-linecap="round"/><circle cx="169.7" cy="169.8" r="8.4"
             fill="#FFFFFF" stroke="#FF6B6B" stroke-width="2"/>
    <rect x="125" y="10" width="50" height="36" rx="12"
          fill="#FF6B6B"/>
    <text x="150" y="36" text-anchor="middle"
          font-family="Arial Rounded MT Bold, Arial, sans-serif"
          font-size="20" font-weight="900" fill="white">34</text>
</svg>