<?xml version="1.0" encoding="UTF-8"?>
<svg xmlns="http://www.w3.org/2000/svg"
     width="300" height="244" viewBox="0 0 300 244">
  <rect width="300" height="244" fill="#FFF5F7" rx="20"/>
  <circle cx="125.4" cy="61.4" r="9.4" fill="#FF6B6B"/><line x1="125.4" y1="71.7" x2="125.4" y2="96.6"
           stroke="#FF6B6B" stroke-width="5" stroke-linecap="round"/><line x1="125.4" y1="73.6" x2="98" y2="59.2"
           stroke="#FF6B6B" stroke-width="5" stroke-linecap="round"/><line x1="125.4" y1="73.6" x2="152.8" y2="59.2"
           stroke="#FF6B6B" stroke-width="5" stroke-linecap="round"/><circle cx="93.5" cy="50.2" r="4" fill="#FF6B6B"/><circle cx="95.1" cy="49.5" r="4" fill="#FF6B6B"/><circle cx="96.9" cy="49.2" r="4" fill="#FF6B6B"/><circle cx="98.7" cy="49.1" r="4" fill="#FF6B6B"/><circle cx="100.5" cy="49.4" r="4" fill="#FF6B6B"/><circle cx="161.7" cy="54.6" r="4" fill="#FF6B6B"/><circle cx="160.8" cy="53.1" r="4" fill="#FF6B6B"/><circle cx="159.6" cy="51.8" r="4" fill="#FF6B6B"/><circle cx="158.1" cy="50.7" r="4" fill="#FF6B6B"/><circle cx="156.5" cy="49.8" r="4" fill="#FF6B6B"/><line x1="125.4" y1="96.6" x2="113.2" y2="121.1"
           stroke="#FF6B6B" stroke-width="5" stroke-linecap="round"/><line x1="125.4" y1="96.6" x2="137.6" y2="121.1"
           stroke="#FF6B6B" stroke-width="5" stroke-linecap="round"/><circle cx="189" cy="61.4" r="9.4" fill="#FF6B6B"/><line x1="189" y1="71.7" x2="189" y2="96.6"
           stroke="#FF6B6B" stroke-width="5" stroke-linecap="round"/><line x1="189" y1="73.6" x2="161.6" y2="59.2"
           stroke="#FF6B6B" stroke-width="5" stroke-linecap="round"/><line x1="189" y1="73.6" x2="216.4" y2="59.2"
           stroke="#FF6B6B" stroke-width="5" stroke-linecap="round"/><circle cx="157.1" cy="50.2" r="4" fill="#FF6B6B"/><circle cx="158.7" cy="49.5" r="4" fill="#FF6B6B"/><circle cx="160.5" cy="49.2" r="4" fill="#FF6B6B"/><circle cx="162.3" cy="49.1" r="4" fill="#FF6B6B"/><circle cx="164.1" cy="49.4" r="4" fill="#FF6B6B"/><circle cx="225.3" cy="54.6" r="4" fill="#FF6B6B"/><circle cx="224.4" cy="53.1" r="4" fill="#FF6B6B"/><circle cx="223.2" cy="51.8" r="4" fill="#FF6B6B"/><circle cx="221.7" cy="50.7" r="4" fill="#FF6B6B"/><circle cx="220.1" cy="49.8" r="4" fill="#FF6B6B"/><line x1="189" y1="96.6" x2="176.8" y2="121.1"
           stroke="#FF6B6B" stroke-width="5" stroke-linecap="round"/><line x1="189" y1="96.6" x2="201.2" y2="121.1"
           stroke="#FF6B6B" stroke-width="5" stroke-linecap="round"/><text x="150" y="148" text-anchor="middle"
       font-family="Arial, sans-serif" font-size="22" font-weight="900"
       fill="#FFAAAA">+</text><circle cx="150" cy="205" r="38.4"
           fill="#FFE8E8" stroke="#FFAAAA" stroke-width="2"/><line x1="141.4"
               y1="185.7"
               x2="133.6" y2="168.2"
               stroke="#FF6B6B" stroke-width="13.2"
               stroke-linecap="round"/><circle cx="133.6" cy="168.2" r="8.4"
             fill="#FFFFFF" stroke="#FF6B6B" stroke-width="2"/><line x1="150"
               y1="183.9"
               x2="150" y2="164.7"
               stroke="#FF6B6B" stroke-width="13.2"
               stroke-linecap="round"/><circle cx="150" cy="164.7" r="8.4"
             fill="#FFFFFF" stroke="#FF6B6B" stroke-width="2"/><line x1="158.6"
               y1="185.7"
               x2="166.4" y2="168.2"
               stroke="#FF6B6B" stroke-width="13.2"
               stroke-linecap="round"/><circle cx="166.4" cy="168.2" r="8.4"
             fill="#FFFFFF" stroke="#FF6B6B" stroke-width="2"/>
    <rect x="125" y="10" width="50" height="36" rx="12"
          fill="#FF6B6B"/>
    <text x="150" y="36" text-anchor="middle"
          font-family="Arial Rounded MT Bold, Arial, sans-serif"
          font-size="20" font-weight="900" fill="white">23</text>
</svg>