<?xml version="1.0" encoding="UTF-8"?>
<svg xmlns="http://www.w3.org/2000/svg"
     width="300" height="240" viewBox="0 0 300 240">
  <rect width="300" height="240" fill="#FFF5F7" rx="20"/>
  <circle cx="150" cy="95" r="38.4"
           fill="#FFE8E8" stroke="#FFAAAA" stroke-width="2"/><line x1="139"
               y1="77"
               x2="128.9" y2="60.6"
               stroke="#FF6B6B" stroke-width="13.2"
               stroke-linecap="round"/><circle cx="128.9" cy="60.6" r="8.4"
             fill="#FFFFFF" stroke="#FF6B6B" stroke-width="2"/><line x1="141.9"
               y1="75.5"
               x2="134.6" y2="57.8"
               stroke="#FF6B6B" stroke-width="13.2"
               stroke-linecap="round"/><circle cx="134.6" cy="57.8" r="8.4"
             fill="#FFFFFF" stroke="#FF6B6B" stroke-width="2"/><line x1="145.1"
               y1="74.5"
               x2="140.6" y2="55.8"
               stroke="#FF6B6B" stroke-width="13.2"
               stroke-linecap="round"/><circle cx="140.6" cy="55.8" r="8.4"
             fill="#FFFFFF" stroke="#FF6B6B" stroke-width="2"/><line x1="148.3"
               y1="74"
               x2="146.8" y2="54.8"
               stroke="#FF6B6B" stroke-width="13.2"
               stroke-linecap="round"/><circle cx="146.8" cy="54.8" r="8.4"
             fill="#FFFFFF" stroke="#FF6B6B" stroke-width="2"/><line x1="151.7"
               y1="74"
               x2="153.2" y2="54.8"
               stroke="#FF6B6B" stroke-width="13.2"
               stroke-linecap="round"/><circle cx="153.2" cy="54.8" r="8.4"
             fill="#FFFFFF" stroke="#FF6B6B" stroke-width="2"/><line x1="154.9"
               y1="74.5"
               x2="159.4" y2="55.8"
               stroke="#FF6B6B" stroke-width="13.2"
               stroke-linecap="round"/><circle cx="159.4" cy="55.8" r="8.4"
             fill="#FFFFFF" stroke="#FF6B6B" stroke-width="2"/><line x1="158.1"
               y1="75.5"
               x2="165.4" y2="57.8"
               stroke="#FF6B6B" stroke-width="13.2"
               stroke-linecap="round"/><circle cx="165.4" cy="57.8" r="8.4"
             fill="#FFFFFF" stroke="#FF6B6B" stroke-width="2"/><line x1="161"
               y1="77"
               x2="171.1" y2="60.6"
               stroke="#FF6B6B" stroke-width="13.2"
               stroke-linecap="round"/><circle cx="171.1" cy="60.6" r="8.4"
             fill="#FFFFFF" stroke="#FF6B6B" stroke-width="2"/>
    <rect x="129" y="10" width="42" height="36" rx="12"
          fill="#FF6B6B"/>
    <text x="150" y="36" text-anchor="middle"
          font-family="Arial Rounded MT Bold, Arial, sans-serif"
          font-size="20" font-weight="900" fill="white">8</text>
</svg>